<mxfile host="app.diagrams.net" agent="Mozilla/5.0 (Windows NT 10.0; Win64; x64) AppleWebKit/537.36 (KHTML, like Gecko) Chrome/127.0.0.0 Safari/537.36" version="24.7.6">
  <diagram name="第 1 页" id="XKmZh4XINQVK6GIYY_-k">
    <mxGraphModel dx="2048" dy="618" grid="1" gridSize="10" guides="1" tooltips="1" connect="1" arrows="1" fold="1" page="1" pageScale="1" pageWidth="827" pageHeight="1169" math="0" shadow="0">
      <root>
        <mxCell id="0" />
        <mxCell id="1" parent="0" />
        <mxCell id="soN_M6FJgwzHM60rShbl-4" value="" style="edgeStyle=orthogonalEdgeStyle;rounded=0;orthogonalLoop=1;jettySize=auto;html=1;" edge="1" parent="1" source="soN_M6FJgwzHM60rShbl-1" target="soN_M6FJgwzHM60rShbl-2">
          <mxGeometry relative="1" as="geometry" />
        </mxCell>
        <mxCell id="soN_M6FJgwzHM60rShbl-1" value="行为链条添加" style="rounded=1;whiteSpace=wrap;html=1;" vertex="1" parent="1">
          <mxGeometry x="90" y="230" width="120" height="60" as="geometry" />
        </mxCell>
        <mxCell id="soN_M6FJgwzHM60rShbl-2" value="redis练习" style="rounded=1;whiteSpace=wrap;html=1;" vertex="1" parent="1">
          <mxGeometry x="-80" y="230" width="120" height="60" as="geometry" />
        </mxCell>
        <mxCell id="soN_M6FJgwzHM60rShbl-6" value="" style="edgeStyle=orthogonalEdgeStyle;rounded=0;orthogonalLoop=1;jettySize=auto;html=1;" edge="1" parent="1" source="soN_M6FJgwzHM60rShbl-5" target="soN_M6FJgwzHM60rShbl-1">
          <mxGeometry relative="1" as="geometry" />
        </mxCell>
        <mxCell id="soN_M6FJgwzHM60rShbl-5" value="新分支html" style="rounded=1;whiteSpace=wrap;html=1;" vertex="1" parent="1">
          <mxGeometry x="270" y="230" width="120" height="60" as="geometry" />
        </mxCell>
        <mxCell id="soN_M6FJgwzHM60rShbl-11" style="edgeStyle=orthogonalEdgeStyle;rounded=0;orthogonalLoop=1;jettySize=auto;html=1;exitX=0;exitY=0;exitDx=0;exitDy=0;entryX=1;entryY=1;entryDx=0;entryDy=0;" edge="1" parent="1" source="soN_M6FJgwzHM60rShbl-9" target="soN_M6FJgwzHM60rShbl-1">
          <mxGeometry relative="1" as="geometry" />
        </mxCell>
        <mxCell id="soN_M6FJgwzHM60rShbl-9" value="新增html文件" style="rounded=1;whiteSpace=wrap;html=1;" vertex="1" parent="1">
          <mxGeometry x="270" y="330" width="120" height="60" as="geometry" />
        </mxCell>
        <mxCell id="soN_M6FJgwzHM60rShbl-13" value="" style="edgeStyle=orthogonalEdgeStyle;shape=connector;rounded=0;orthogonalLoop=1;jettySize=auto;html=1;strokeColor=default;align=center;verticalAlign=middle;fontFamily=Helvetica;fontSize=11;fontColor=default;labelBackgroundColor=default;endArrow=classic;" edge="1" parent="1" source="soN_M6FJgwzHM60rShbl-12" target="soN_M6FJgwzHM60rShbl-9">
          <mxGeometry relative="1" as="geometry" />
        </mxCell>
        <mxCell id="soN_M6FJgwzHM60rShbl-12" value="完成最新修改" style="rounded=1;whiteSpace=wrap;html=1;" vertex="1" parent="1">
          <mxGeometry x="450" y="330" width="120" height="60" as="geometry" />
        </mxCell>
        <mxCell id="soN_M6FJgwzHM60rShbl-15" value="" style="edgeStyle=orthogonalEdgeStyle;shape=connector;rounded=0;orthogonalLoop=1;jettySize=auto;html=1;strokeColor=default;align=center;verticalAlign=middle;fontFamily=Helvetica;fontSize=11;fontColor=default;labelBackgroundColor=default;endArrow=classic;" edge="1" parent="1" source="soN_M6FJgwzHM60rShbl-14" target="soN_M6FJgwzHM60rShbl-12">
          <mxGeometry relative="1" as="geometry" />
        </mxCell>
        <mxCell id="soN_M6FJgwzHM60rShbl-14" value="iss53" style="rounded=0;whiteSpace=wrap;html=1;fillColor=#F19C99;" vertex="1" parent="1">
          <mxGeometry x="450" y="450" width="120" height="60" as="geometry" />
        </mxCell>
        <mxCell id="soN_M6FJgwzHM60rShbl-17" style="edgeStyle=orthogonalEdgeStyle;shape=connector;rounded=0;orthogonalLoop=1;jettySize=auto;html=1;exitX=0;exitY=0.5;exitDx=0;exitDy=0;entryX=1;entryY=0.5;entryDx=0;entryDy=0;strokeColor=default;align=center;verticalAlign=middle;fontFamily=Helvetica;fontSize=11;fontColor=default;labelBackgroundColor=default;endArrow=classic;" edge="1" parent="1" source="soN_M6FJgwzHM60rShbl-16" target="soN_M6FJgwzHM60rShbl-5">
          <mxGeometry relative="1" as="geometry" />
        </mxCell>
        <mxCell id="soN_M6FJgwzHM60rShbl-18" style="edgeStyle=orthogonalEdgeStyle;shape=connector;rounded=0;orthogonalLoop=1;jettySize=auto;html=1;exitX=0;exitY=1;exitDx=0;exitDy=0;entryX=1;entryY=0;entryDx=0;entryDy=0;strokeColor=default;align=center;verticalAlign=middle;fontFamily=Helvetica;fontSize=11;fontColor=default;labelBackgroundColor=default;endArrow=classic;" edge="1" parent="1" source="soN_M6FJgwzHM60rShbl-16" target="soN_M6FJgwzHM60rShbl-12">
          <mxGeometry relative="1" as="geometry" />
        </mxCell>
        <mxCell id="soN_M6FJgwzHM60rShbl-16" value="最终分支合并" style="rounded=1;whiteSpace=wrap;html=1;" vertex="1" parent="1">
          <mxGeometry x="590" y="230" width="120" height="60" as="geometry" />
        </mxCell>
        <mxCell id="soN_M6FJgwzHM60rShbl-21" value="" style="edgeStyle=orthogonalEdgeStyle;shape=connector;rounded=0;orthogonalLoop=1;jettySize=auto;html=1;strokeColor=default;align=center;verticalAlign=middle;fontFamily=Helvetica;fontSize=11;fontColor=default;labelBackgroundColor=default;endArrow=classic;" edge="1" parent="1" source="soN_M6FJgwzHM60rShbl-19" target="soN_M6FJgwzHM60rShbl-16">
          <mxGeometry relative="1" as="geometry" />
        </mxCell>
        <mxCell id="soN_M6FJgwzHM60rShbl-19" value="master" style="rounded=0;whiteSpace=wrap;html=1;fillColor=#F19C99;" vertex="1" parent="1">
          <mxGeometry x="590" y="90" width="120" height="60" as="geometry" />
        </mxCell>
      </root>
    </mxGraphModel>
  </diagram>
</mxfile>
